<?xml version="1.0" standalone="no"?>
<!DOCTYPE svg PUBLIC "-//W3C//DTD SVG 20010904//EN"
 "http://www.w3.org/TR/2001/REC-SVG-20010904/DTD/svg10.dtd">
<svg version="1.0" xmlns="http://www.w3.org/2000/svg"
 width="877.000000pt" height="877.000000pt" viewBox="0 0 877.000000 877.000000"
 preserveAspectRatio="xMidYMid meet">
<metadata>
Created by potrace 1.11, written by Peter Selinger 2001-2013
</metadata>
<g transform="translate(0.000000,877.000000) scale(0.100000,-0.100000)"
fill="#000000" stroke="none">
<path d="M2917 6798 l-226 -203 0 -2417 -1 -2418 1473 1 1472 0 220 203 220
202 3 597 2 597 -875 0 -875 0 0 1820 0 1820 -594 0 -594 0 -225 -202z m220
-205 c-2 -2 -71 -2 -152 -1 l-148 3 149 136 149 136 3 -135 c1 -74 1 -137 -1
-139z m2737 -4481 c-33 -31 -101 -95 -152 -141 l-92 -83 0 141 0 141 153 0
152 -1 -61 -57z"/>
</g>
</svg>
